<svg width="604" height="716" viewBox="0 0 604 716" fill="none" xmlns="http://www.w3.org/2000/svg">
<path d="M272.637 41.1328V334.863H293.203C324.844 334.863 350.684 330.117 370.723 320.625C390.762 311.133 407.637 295.137 421.348 272.637C435.41 250.137 444.551 219.727 448.77 181.406H467.227V540.527H448.77C442.09 472.676 423.809 428.027 393.926 406.582C364.395 384.785 330.82 373.887 293.203 373.887H272.637V592.734C272.637 629.297 274.57 652.148 278.438 661.289C282.656 670.43 290.566 678.516 302.168 685.547C314.121 692.227 330.117 695.566 350.156 695.566H373.887V715.078H0V695.566H23.7305C44.4727 695.566 61.1719 691.875 73.8281 684.492C82.9688 679.57 90 671.133 94.9219 659.18C98.7891 650.742 100.723 628.594 100.723 592.734V122.344C100.723 85.7812 98.7891 62.9297 94.9219 53.7891C91.0547 44.6484 83.1445 36.7383 71.1914 30.0586C59.5898 23.0273 43.7695 19.5117 23.7305 19.5117H0V0H603.281V205.137H581.66C576.738 156.973 564.082 121.289 543.691 98.0859C523.652 74.8828 494.473 58.5352 456.152 49.043C435.059 43.7695 396.035 41.1328 339.082 41.1328H272.637Z" fill="#FFBA52"/>
</svg>
